<svg xmlns="http://www.w3.org/2000/svg" viewBox="0 0 1200 800"><rect width="1200" height="800" fill="#06111c"/><g stroke="#2fc8ff" stroke-opacity=".18" fill="none"><path d="M0 80h1200M0 160h1200M0 240h1200M0 320h1200M0 400h1200M0 480h1200M0 560h1200M0 640h1200M0 720h1200"/><path d="M80 0v800M160 0v800M240 0v800M320 0v800M400 0v800M480 0v800M560 0v800M640 0v800M720 0v800M800 0v800M880 0v800M960 0v800M1040 0v800M1120 0v800"/></g><g stroke="#d89b2b" stroke-opacity=".3" fill="none" stroke-width="5"><circle cx="880" cy="360" r="160"/><path d="M760 360h240M880 240v240"/></g></svg>